<svg width="18" height="13" viewBox="0 0 18 13" fill="none" xmlns="http://www.w3.org/2000/svg">
<path d="M7.92324 12.6953C4.04024 12.6953 0.881348 8.86314 0.881348 4.15278C0.881348 3.90747 1.07815 3.7085 1.32109 3.7085C1.56403 3.7085 1.76084 3.90733 1.76084 4.15278C1.76084 8.3732 4.52531 11.8067 7.92337 11.8067C11.3214 11.8067 14.0859 8.3732 14.0859 4.15278C14.0859 3.90747 14.2827 3.7085 14.5257 3.7085C14.7686 3.7085 14.9654 3.90733 14.9654 4.15278C14.9653 8.86314 11.8062 12.6953 7.92324 12.6953Z" fill="white"/>
<path d="M12.2581 4.03371C12.1456 4.03371 12.0331 3.99037 11.9471 3.90356C11.7754 3.73007 11.7754 3.44878 11.9471 3.2753L14.226 0.972924C14.3084 0.889655 14.4203 0.842773 14.5369 0.842773C14.6536 0.842773 14.7654 0.889519 14.8479 0.972924L17.1045 3.25295C17.2762 3.42643 17.2762 3.70772 17.1045 3.88121C16.9327 4.05456 16.6543 4.0547 16.4826 3.88121L14.5368 1.91546L12.569 3.90356C12.4831 3.99037 12.3706 4.03371 12.2581 4.03371Z" fill="white"/>
</svg>
